<?xml version="1.0" encoding="iso-8859-1"?>
<!-- Generator: Adobe Illustrator 16.0.0, SVG Export Plug-In . SVG Version: 6.00 Build 0)  -->
<!DOCTYPE svg PUBLIC "-//W3C//DTD SVG 1.1//EN" "http://www.w3.org/Graphics/SVG/1.1/DTD/svg11.dtd">
<svg version="1.1" id="Layer_1" xmlns="http://www.w3.org/2000/svg" xmlns:xlink="http://www.w3.org/1999/xlink" x="0px" y="0px"
	 width="29px" height="20px" viewBox="0 0 29 20" style="enable-background:new 0 0 29 20;" xml:space="preserve">
<path style="fill-rule:evenodd;clip-rule:evenodd;fill:#6D6E70;" d="M21.612,14.675c-1.06-1.034-2.098-2.093-3.151-3.134
	c-0.156-0.156-0.201-0.264-0.076-0.477c0.47-0.793,0.709-1.67,0.757-2.586c0.178-3.501-2.563-6.382-6.054-6.362
	c-0.222,0-0.446-0.024-0.666,0.001c-3.5,0.415-5.875,3.609-5.277,7.094c0.708,4.124,5.42,6.291,9.022,4.139
	c0.197-0.119,0.292-0.09,0.442,0.062c1.025,1.041,2.066,2.061,3.09,3.105c0.239,0.244,0.472,0.303,0.755,0.127
	c0.522-0.32,0.943-0.748,1.265-1.268C21.877,15.127,21.846,14.9,21.612,14.675 M13.092,12.189c-2.248-0.008-4.041-1.833-4.034-4.107
	c0.006-2.185,1.862-4.011,4.052-3.985c2.248,0.027,4.022,1.819,4.017,4.051C17.12,10.376,15.297,12.201,13.092,12.189"/>
</svg>
